#!OML:ASF Y:\EmotionMaleHayes\Project 1\Capture day 1\Session 1\Male1.ASF
:FULLY-SPECIFIED
:DEGREES
1007
root 46.3665 17.1566 0.0620612 986.868 91.8857 990.497
lowerback 4.52665 2.54346 -4.83536
upperback -1.81638 3.07688 -0.56674
thorax -4.64961 1.66372 1.85233
lowerneck -16.131 7.86684 10.4569
upperneck 23.1384 9.93076 -5.15564
head 10.9331 4.98554 -2.10459
rclavicle -1.49089e-016 -8.15017e-015
rhumerus -39.6565 -0.0644174 -83.7362
rradius 35.9161
rwrist 0.463496
rhand -7.90061 -33.5042
rfingers 7.12502
rthumb 18.0045 -62.6908
lclavicle -1.49089e-016 -8.15017e-015
lhumerus -39.0191 -8.71704 89.2969
lradius 30.7493
lwrist -1.82791
lhand -15.1652 -22.3684
lfingers 7.12502
lthumb 11.0054 7.32312
rfemur 12.0338 -5.84395 12.1417
rtibia 4.32985
rfoot -15.6916 -4.99531
rtoes 5.94977
lfemur 16.8579 -2.30721 -19.5811
ltibia -0.392177
lfoot -13.1077 6.61986
ltoes -0.399392
1008
root 46.3701 17.1553 0.0683813 988.97 92.1716 992.594
lowerback 4.47489 2.50747 -5.21383
upperback -1.77403 3.00929 -0.594366
thorax -4.59114 1.63941 2.0441
lowerneck -16.2413 7.78319 10.3143
upperneck 23.1938 9.83087 -5.11972
head 10.9552 4.9297 -2.08153
rclavicle -1.56294e-014 2.18663e-015
rhumerus -39.5319 -0.146788 -83.742
rradius 35.8515
rwrist 0.815561
rhand -7.63822 -33.3118
rfingers 7.12502
rthumb 18.2569 -62.475
lclavicle -1.56294e-014 2.18663e-015
lhumerus -38.8661 -8.62806 89.3089
lradius 30.7588
lwrist -1.79387
lhand -15.135 -22.2816
lfingers 7.12502
lthumb 11.0345 7.40831
rfemur 12.0967 -5.89284 11.7635
rtibia 4.25588
rfoot -15.6535 -4.94866
rtoes 6.44427
lfemur 16.8526 -2.37822 -19.9291
ltibia -0.414471
lfoot -13.1237 6.63172
ltoes -0.284556
1009
root 46.3749 17.1519 0.0766854 988.127 92.2927 991.828
lowerback 4.47405 2.49014 -5.46001
upperback -1.69409 2.97461 -0.558564
thorax -4.52026 1.62677 2.22378
lowerneck -16.3737 7.70128 10.2016
upperneck 23.2579 9.74076 -5.14747
head 10.9911 4.87292 -2.08383
rclavicle -2.34566e-014 2.52457e-014
rhumerus -39.3922 -0.140353 -83.7783
rradius 35.7242
rwrist 1.06207
rhand -7.58808 -33.0669
rfingers 7.12502
rthumb 18.3051 -62.2256
lclavicle -2.34566e-014 2.52457e-014
lhumerus -38.6941 -8.65056 89.3776
lradius 30.7855
lwrist -1.55734
lhand -15.1623 -22.1369
lfingers 7.12502
lthumb 11.0082 7.55444
rfemur 12.2524 -5.72629 11.6654
rtibia 4.12422
rfoot -15.6217 -5.06748
rtoes 6.55257
lfemur 16.985 -2.4518 -20.0454
ltibia -0.467369
lfoot -13.2318 6.67082
ltoes 0.820503
1010
root 46.3872 17.1488 0.0733106 992.695 92.7966 996.422
lowerback 4.27737 2.40298 -5.90683
upperback -1.56008 2.84698 -0.680553
thorax -4.27587 1.56687 2.3699
lowerneck -16.4575 7.60947 10.1492
upperneck 23.2019 9.64339 -5.28234
head 10.9819 4.80495 -2.138
rclavicle -6.01324e-015 1.55052e-014
rhumerus -39.2002 0.0351311 -83.9361
rradius 35.7442
rwrist 0.926777
rhand -7.50337 -33.3918
rfingers 7.12502
rthumb 18.3866 -62.5428
lclavicle -6.01324e-015 1.55052e-014
lhumerus -38.516 -8.63823 89.4092
lradius 30.9013
lwrist -1.34751
lhand -15.2611 -22.079
lfingers 7.12502
lthumb 10.9129 7.61739
rfemur 12.4923 -6.43919 10.7509
rtibia 4.03514
rfoot -15.5149 -4.51979
rtoes 6.03978
lfemur 17.038 -2.34364 -20.6756
ltibia -0.473292
lfoot -13.2396 6.4351
ltoes 1.40188
1011
root 46.3979 17.1475 0.0744088 994.844 92.2932 998.589
lowerback 4.44343 2.37831 -5.32251
upperback -1.73108 2.83481 -0.554864
thorax -4.52277 1.55441 2.16436
lowerneck -16.2482 7.45 10.127
upperneck 23.2545 9.48036 -5.36428
head 10.9496 4.72844 -2.19692
rclavicle -4.00054e-015 -3.77691e-015
rhumerus -39.4753 0.149236 -84.1061
rradius 35.8026
rwrist 0.781814
rhand -7.4318 -33.5823
rfingers 7.12502
rthumb 18.4555 -62.7268
lclavicle -4.00054e-015 -3.77691e-015
lhumerus -38.8412 -8.62536 89.4551
lradius 31.1176
lwrist -1.30826
lhand -15.2682 -22.0222
lfingers 7.12502
lthumb 10.9061 7.67462
rfemur 12.6488 -6.63852 11.3235
rtibia 3.87243
rfoot -15.4922 -4.38854
rtoes 5.95937
lfemur 17.1789 -2.33297 -20.0441
ltibia -0.608874
lfoot -13.1755 6.40357
ltoes 0.726212
1012
root 46.4 17.1504 0.0812205 995.919 92.0693 999.609
lowerback 4.28498 2.3811 -5.10971
upperback -1.64985 2.86581 -0.469528
thorax -4.34348 1.55949 2.14046
lowerneck -16.4153 7.32936 9.97353
upperneck 23.2748 9.33163 -5.36985
head 10.9674 4.64215 -2.19357
rclavicle 4.31114e-014 -2.76311e-014
rhumerus -39.2367 0.162871 -84.1991
rradius 35.6866
rwrist 0.695627
rhand -7.53438 -33.5023
rfingers 7.12502
rthumb 18.3568 -62.6562
lclavicle 4.31114e-014 -2.76311e-014
lhumerus -38.6716 -8.65677 89.5231
lradius 31.2742
lwrist -1.22183
lhand -15.2041 -22.0133
lfingers 7.12502
lthumb 10.9679 7.68023
rfemur 12.6164 -6.48589 11.7133
rtibia 3.78665
rfoot -15.5092 -4.58926
rtoes 6.12659
lfemur 17.1279 -2.43239 -19.7321
ltibia -0.626923
lfoot -13.1762 6.47371
ltoes 0.280851
1013
root 46.3967 17.1481 0.0886318 998.091 91.6876 1001.88
lowerback 4.41383 2.40822 -4.6779
upperback -1.57404 2.92398 -0.374062
thorax -4.32335 1.57535 1.99031
lowerneck -16.658 7.17662 9.77239
upperneck 23.4257 9.10137 -5.1831
head 11.0291 4.53692 -2.12345
rclavicle 1.48095e-014 9.93923e-015
rhumerus -39.0959 0.115243 -84.3127
rradius 35.6378
rwrist 0.541886
rhand -7.5076 -33.5766
rfingers 7.12502
rthumb 18.3826 -62.7281
lclavicle 1.48095e-014 9.93923e-015
lhumerus -38.5729 -8.75613 89.6021
lradius 31.3969
lwrist -1.1185
lhand -15.1664 -22.1537
lfingers 7.12502
lthumb 11.0042 7.53788
rfemur 12.7048 -6.23765 12.3259
rtibia 3.73483
rfoot -15.5309 -4.89743
rtoes 5.59727
lfemur 17.2264 -2.55424 -19.2139
ltibia -0.660047
lfoot -13.1622 6.46547
ltoes -0.228259
1014
root 46.3951 17.1448 0.0951077 997.054 92.1132 1000.92
lowerback 4.56421 2.4488 -5.10936
upperback -1.56428 2.94017 -0.491469
thorax -4.41698 1.59554 2.10129
lowerneck -16.6411 7.00116 9.598
upperneck 23.3701 8.89362 -5.1705
head 10.9768 4.429 -2.12544
rclavicle 6.48535e-015 -7.95139e-016
rhumerus -39.111 0.16232 -84.4466
rradius 35.6487
rwrist 0.43394
rhand -7.33988 -33.6434
rfingers 7.12502
rthumb 18.5439 -62.7795
lclavicle 6.48535e-015 -7.95139e-016
lhumerus -38.5204 -8.85033 89.6874
lradius 31.3688
lwrist -1.16461
lhand -15.1749 -22.2516
lfingers 7.12502
lthumb 10.996 7.44042
rfemur 12.8208 -6.09197 11.8515
rtibia 3.6788
rfoot -15.5322 -5.04943
rtoes 5.05074
lfemur 17.2521 -2.52465 -19.6751
ltibia -0.612227
lfoot -13.102 6.39302
ltoes -1.40849
1015
root 46.3899 17.147 0.108886 994.839 92.1502 998.665
lowerback 4.71093 2.49273 -5.28826
upperback -1.66309 2.97635 -0.472406
thorax -4.61744 1.62465 2.20794
lowerneck -16.5993 6.90152 9.42548
upperneck 23.4978 8.76948 -4.98964
head 10.9874 4.3828 -2.05289
rclavicle 4.94477e-015 -4.17448e-015
rhumerus -39.2036 0.253999 -84.5972
rradius 35.6302
rwrist 0.361854
rhand -7.3827 -33.5783
rfingers 7.12502
rthumb 18.5027 -62.7183
lclavicle 4.94477e-015 -4.17448e-015
lhumerus -38.5234 -8.87014 89.7591
lradius 31.3074
lwrist -1.22457
lhand -15.1175 -22.201
lfingers 7.12502
lthumb 11.0514 7.48801
rfemur 12.7347 -5.4565 12.0871
rtibia 3.58626
rfoot -15.6606 -5.65219
rtoes 5.48005
lfemur 17.1326 -2.53032 -19.6047
ltibia -0.533725
lfoot -13.0559 6.50657
ltoes -2.08409
1016
root 46.3858 17.1484 0.113867 994.039 92.061 997.837
lowerback 4.86014 2.50409 -5.23211
upperback -1.74821 2.98467 -0.427582
thorax -4.79125 1.63269 2.21336
lowerneck -16.5971 6.7816 9.2425
upperneck 23.5667 8.63338 -4.90111
head 10.9871 4.31716 -2.01303
rclavicle 4.99446e-015 -1.61016e-014
rhumerus -39.3019 0.332974 -84.7553
rradius 35.5963
rwrist 0.238932
rhand -7.73869 -33.4427
rfingers 7.12502
rthumb 18.1603 -62.615
lclavicle 4.99446e-015 -1.61016e-014
lhumerus -38.6088 -8.90457 89.8685
lradius 31.3631
lwrist -1.17571
lhand -15.1511 -22.3259
lfingers 7.12502
lthumb 11.019 7.36492
rfemur 12.656 -5.1699 12.3313
rtibia 3.57321
rfoot -15.7697 -5.86444
rtoes 5.89938
lfemur 17.0696 -2.53086 -19.4402
ltibia -0.49705
lfoot -13.144 6.51161
ltoes -1.10164
1017
root 46.4065 17.145 0.105258 996.713 92.7247 1000.56
lowerback 4.66707 2.45228 -5.75516
upperback -1.64922 2.89291 -0.602517
thorax -4.59003 1.59482 2.34308
lowerneck -16.7049 6.671 9.04025
upperneck 23.6186 8.50509 -4.8305
head 11.0026 4.24733 -1.97229
rclavicle 1.90336e-014 -1.63003e-014
rhumerus -39.3104 0.356514 -84.8609
rradius 35.5833
rwrist 0.350803
rhand -7.96112 -33.2923
rfingers 7.12502
rthumb 17.9462 -62.4843
lclavicle 1.90336e-014 -1.63003e-014
lhumerus -38.6071 -9.0011 90.0192
lradius 31.4668
lwrist -1.07492
lhand -15.251 -22.514
lfingers 7.12502
lthumb 10.9227 7.18185
rfemur 12.9193 -6.07652 11.1158
rtibia 3.60181
rfoot -15.6756 -4.96993
rtoes 5.88439
lfemur 17.2496 -2.41876 -20.3143
ltibia -0.597686
lfoot -13.256 6.21513
ltoes -0.227074
